<svg xmlns="http://www.w3.org/2000/svg" xmlns:xlink="http://www.w3.org/1999/xlink" fill="none" version="1.1" width="1000" height="738" viewBox="0 0 1000 738"><g><g><path d="M207.939,466.34663452148436Q199.918,466.34663452148436,193.747,463.4686345214844Q184.903,459.14963452148436,176.265,451.43863452148435Q167.626,443.72763452148433,159.811,434.06263452148437Q151.995,424.3986345214844,145.825,413.7056345214844Q139.654,403.01263452148436,135.541,392.9366345214844Q124.229,399.5166345214844,116.824,400.1336345214844Q111.065,407.53663452148436,102.221,416.99563452148436Q93.3772,426.45463452148437,82.5792,435.2966345214844Q71.7812,444.1386345214844,59.5434,449.79363452148436Q47.3056,455.44863452148434,34.7594,455.44863452148434Q18.7166,455.44863452148434,9.35829,447.3266345214844Q0,439.2036345214844,0,421.7256345214844Q0,412.06063452148436,4.73056,402.60163452148436Q9.46113,393.1426345214844,17.4825,385.5342345214844Q25.5039,377.92593452148435,34.965,374.01893452148437Q46.6886,368.87813452148436,59.4406,368.87813452148436Q66.6392,368.87813452148436,70.9585,372.6823345214844Q75.2777,376.4865345214844,75.2777,382.4497345214844Q75.2777,385.12293452148435,74.455,385.9455345214844Q74.2493,386.1511345214844,73.8379,386.1511345214844Q73.2209,386.1511345214844,72.1925,384.50603452148437Q68.9017,378.13153452148435,65.6109,376.0752345214844Q62.32,374.01893452148437,56.3554,374.01893452148437Q47.3056,374.01893452148437,38.7701,378.4400345214844Q30.2345,382.8610345214844,23.3443,390.2636345214844Q16.4541,397.66663452148435,12.3406,406.8166345214844Q8.22707,415.96763452148434,8.22707,425.2206345214844Q8.22707,447.42863452148435,33.3196,450.3076345214844Q42.7808,451.13063452148435,58.2065,442.28863452148437Q81.2423,429.12763452148437,107.363,397.0496345214844Q102.633,392.73163452148435,102.633,384.71173452148435Q102.633,375.8696345214844,108.597,368.6725345214844Q115.179,360.8585345214844,126.08,360.8585345214844Q129.165,360.8585345214844,131.839,361.4754345214844Q137.392,352.01643452148437,142.534,342.35183452148436Q147.676,332.68723452148436,152.406,322.81693452148437Q161.456,304.1046345214844,161.456,301.02013452148435Q161.456,300.60883452148437,161.251,300.60883452148437Q160.633,300.19763452148436,156.314,302.1511345214844Q151.995,304.1046345214844,146.236,306.88063452148435Q140.477,309.65663452148436,135.541,312.3298345214844Q130.605,315.0030345214844,128.754,316.2367345214844Q121.761,320.76063452148435,114.768,327.7521345214844Q105.718,336.7998345214844,105.718,341.7349345214844Q105.718,343.9969345214844,107.775,345.43633452148435Q112.094,348.52073452148437,120.527,348.52073452148437Q121.555,348.93203452148435,121.555,349.34323452148436Q121.555,350.3714345214844,114.973,351.3995345214844Q108.392,352.42773452148435,104.689,352.01643452148437Q99.5475,350.7827345214844,99.5475,346.0532345214844Q99.5475,338.85613452148436,108.392,328.7802345214844Q117.236,318.7043345214844,127.725,312.94673452148436Q158.371,296.49626452148436,166.598,296.49626452148436Q168.655,296.49626452148436,170.095,297.31883452148435Q170.917,297.93563452148436,170.917,299.5807345214844Q170.917,312.1241345214844,136.364,371.34573452148436Q136.981,373.81333452148436,138.112,377.0005345214844Q139.243,380.1878345214844,140.889,384.30043452148436L202.18,337.6223345214844Q217.606,325.90143452148436,230.358,316.44243452148436Q243.11,306.98343452148436,254.731,300.40323452148436Q266.351,293.82306452148435,278.178,290.32734452148435Q290.004,286.8316345214844,303.784,286.8316345214844Q311.395,286.8316345214844,317.77,289.29919452148437Q321.678,290.73861452148435,321.678,295.05685452148435Q321.678,298.5525345214844,319.622,298.5525345214844Q318.593,298.5525345214844,317.565,297.31883452148435Q315.714,295.2624845214844,309.749,295.2624845214844Q306.458,295.2624845214844,301.111,296.08499452148436Q295.763,296.90753452148437,288.153,298.5525345214844Q276.429,301.22573452148436,263.369,306.98343452148436Q250.309,312.7410345214844,235.911,321.5831345214844Q217.812,332.89283452148436,186.549,356.7459345214844Q170.712,368.87813452148436,159.708,376.7949345214844Q148.704,384.71173452148435,142.74,388.6186345214844Q147.265,398.07763452148436,153.743,408.1536345214844Q160.222,418.2296345214844,167.832,427.5856345214844Q175.442,436.9416345214844,183.875,444.24163452148434Q192.308,451.5416345214844,200.535,455.2426345214844Q208.556,458.9446345214844,215.138,458.9446345214844Q225.01,458.9446345214844,225.01,451.3356345214844Q225.01,450.92463452148434,225.01,450.3076345214844Q225.01,449.6906345214844,224.805,449.27963452148435Q224.805,448.8686345214844,224.702,448.5596345214844Q224.599,448.25163452148433,224.599,448.0456345214844Q224.599,445.9896345214844,225.627,444.44763452148436Q226.656,442.9056345214844,227.89,442.9056345214844Q230.564,442.9056345214844,231.386,449.27963452148435Q231.592,449.6906345214844,231.592,450.3076345214844Q231.592,450.92463452148434,231.592,451.3356345214844Q231.592,456.27063452148434,228.095,459.66363452148437Q224.599,463.0566345214844,219.251,464.7016345214844Q213.904,466.34663452148436,207.939,466.34663452148436ZM113.945,388.6186345214844L115.385,386.56243452148436Q117.03,384.09483452148436,119.807,380.1878345214844Q122.583,376.2808345214844,126.08,370.9344345214844Q123.612,369.9063345214844,121.761,369.9063345214844Q117.441,369.9063345214844,114.562,373.6076345214844Q111.682,377.30903452148436,111.682,381.8329345214844Q111.682,385.73983452148434,113.945,388.6186345214844ZM122.995,392.1146345214844Q125.051,392.1146345214844,125.668,391.9086345214844Q128.342,391.4976345214844,133.896,388.6186345214844Q133.073,386.1511345214844,132.353,384.09483452148436Q131.633,382.0385345214844,131.222,380.3934345214844Q129.782,382.6554345214844,127.725,385.6370345214844Q125.668,388.6186345214844,122.995,392.1146345214844ZM325.175,440.84863452148437Q320.239,440.84863452148437,315.302,437.35263452148433Q310.366,433.8576345214844,309.749,429.12763452148437Q307.692,413.29463452148434,329.7,391.4976345214844Q351.501,369.7007345214844,368.984,369.7007345214844Q373.715,369.7007345214844,376.388,371.96263452148435Q377.828,373.4020345214844,378.548,375.8696345214844Q379.268,378.33713452148436,379.679,378.33713452148436Q380.502,378.33713452148436,381.119,378.02873452148435Q381.736,377.7202345214844,382.559,377.7202345214844Q385.027,377.7202345214844,386.878,379.5709345214844Q388.729,381.4216345214844,388.935,382.8610345214844Q389.14,383.27233452148437,375.771,403.2186345214844Q362.402,422.7536345214844,363.636,429.7446345214844Q364.665,434.4746345214844,368.161,434.4746345214844Q378.856,434.4746345214844,407.24,399.1056345214844Q407.857,398.2836345214844,408.474,398.2836345214844Q409.502,398.2836345214844,409.502,399.7226345214844Q409.502,401.3676345214844,407.651,403.8356345214844Q381.53,438.9986345214844,367.544,438.9986345214844Q365.693,438.9986345214844,364.048,438.3816345214844Q354.998,434.88563452148435,354.998,424.8096345214844Q354.998,421.31363452148435,355.821,417.81863452148434L343.069,430.1556345214844Q337.31,435.91363452148437,332.682,438.3816345214844Q328.054,440.84863452148437,325.175,440.84863452148437ZM323.324,436.32463452148437Q335.253,436.32463452148437,355.821,410.20963452148436L377.622,380.1878345214844Q375.977,377.30903452148436,372.275,377.30903452148436Q359.729,377.30903452148436,338.338,397.4606345214844Q316.125,418.0236345214844,318.388,431.38963452148437Q319.416,436.32463452148437,323.324,436.32463452148437ZM535.171,442.4936345214844Q528.589,442.4936345214844,523.242,438.2786345214844Q517.894,434.06263452148437,517.894,427.0716345214844Q517.894,412.47163452148436,535.788,393.7596345214844Q554.093,374.84143452148436,568.49,374.84143452148436Q573.427,374.84143452148436,576.306,377.41183452148437Q579.186,379.9822345214844,579.186,383.6835345214844Q579.186,388.82463452148437,576.717,393.1426345214844Q573.838,398.48863452148436,568.49,398.48863452148436Q563.143,398.48863452148436,563.143,395.1986345214844Q563.143,392.9366345214844,565.817,388.4126345214844Q568.696,383.6835345214844,568.696,383.47793452148437Q568.696,383.0666345214844,568.079,383.0666345214844Q562.32,383.6835345214844,552.036,391.4976345214844Q547.511,394.9936345214844,544.118,398.07763452148436Q540.724,401.1626345214844,538.667,404.0406345214844L530.646,415.7616345214844Q529.412,417.6126345214844,528.075,422.1366345214844Q526.738,426.6606345214844,526.738,428.9226345214844Q526.738,433.03463452148435,529.515,435.70763452148435Q532.291,438.3816345214844,536.61,438.3816345214844Q546.894,438.3816345214844,563.76,425.01563452148434Q577.334,414.32263452148436,585.562,403.42363452148436Q586.59,402.19063452148436,588.03,402.19063452148436Q589.469,402.19063452148436,589.469,403.01263452148436Q589.469,403.6296345214844,588.441,405.06863452148434Q577.129,420.0806345214844,561.909,430.97863452148437Q545.66,442.4936345214844,535.171,442.4936345214844ZM695.599,440.84863452148437Q689.634,440.84863452148437,689.634,437.35263452148433Q689.634,435.2966345214844,692.102,430.7726345214844Q701.563,413.91163452148436,709.07,400.85363452148437Q716.578,387.7966345214844,722.337,378.74843452148434Q746.812,339.47303452148435,756.89,336.18293452148436Q757.302,336.18293452148436,757.507,336.08013452148435Q757.713,335.97733452148435,757.919,335.97733452148435Q760.592,335.97733452148435,761.415,340.2955345214844Q760.798,344.61383452148436,740.025,371.55133452148436Q729.124,385.3286345214844,723.056,394.2736345214844Q716.989,403.2186345214844,715.549,407.3306345214844Q722.337,402.39563452148434,730.152,396.8436345214844Q737.968,391.29163452148435,745.372,386.2539345214844Q752.777,381.2160345214844,758.741,378.02873452148435Q764.706,374.84143452148436,767.997,374.4302345214844Q768.408,374.4302345214844,769.025,374.3273345214844Q769.642,374.2245345214844,769.848,374.2245345214844Q775.607,374.2245345214844,775.607,379.5709345214844Q775.607,381.01033452148437,771.905,385.9455345214844Q768.202,390.88063452148435,760.592,401.1626345214844Q747.018,419.25763452148436,747.018,428.30563452148436Q747.018,433.03463452148435,750.514,433.03463452148435Q754.216,432.82963452148437,759.05,429.7446345214844Q763.883,426.6606345214844,768.819,422.1366345214844Q773.756,417.6126345214844,777.766,413.1916345214844Q781.777,408.77063452148434,783.834,406.3026345214844Q785.685,404.45263452148436,786.713,404.45263452148436Q787.536,404.45263452148436,787.536,405.27463452148436Q787.536,406.91963452148434,785.891,409.1816345214844Q783.422,412.2666345214844,778.589,417.2016345214844Q773.756,422.1366345214844,768.099,427.17463452148434Q762.443,432.21263452148435,757.404,435.6056345214844Q752.365,438.9986345214844,749.897,438.9986345214844Q737.762,438.9986345214844,737.762,424.8096345214844Q737.762,416.78963452148434,745.167,403.8356345214844Q748.046,398.9006345214844,751.131,393.96463452148436Q754.216,389.02963452148435,757.302,384.09483452148436Q730.975,397.25563452148435,709.585,422.9586345214844Q706.911,426.6606345214844,704.031,430.87563452148436Q701.152,435.09163452148437,698.889,437.9696345214844Q696.627,440.84863452148437,695.599,440.84863452148437ZM915.673,440.84863452148437Q910.736,440.84863452148437,905.8,437.35263452148433Q900.864,433.8576345214844,900.247,429.12763452148437Q898.19,413.29463452148434,920.197,391.4976345214844Q941.999,369.7007345214844,959.482,369.7007345214844Q964.212,369.7007345214844,966.886,371.96263452148435Q968.326,373.4020345214844,969.046,375.8696345214844Q969.766,378.33713452148436,970.177,378.33713452148436Q971,378.33713452148436,971.617,378.02873452148435Q972.234,377.7202345214844,973.056,377.7202345214844Q975.525,377.7202345214844,977.376,379.5709345214844Q979.227,381.4216345214844,979.432,382.8610345214844Q979.638,383.27233452148437,966.269,403.2186345214844Q952.9,422.7536345214844,954.134,429.7446345214844Q955.163,434.4746345214844,958.659,434.4746345214844Q969.354,434.4746345214844,997.738,399.1056345214844Q998.355,398.2836345214844,998.972,398.2836345214844Q1000,398.2836345214844,1000,399.7226345214844Q1000,401.3676345214844,998.149,403.8356345214844Q972.028,438.9986345214844,958.042,438.9986345214844Q956.191,438.9986345214844,954.546,438.3816345214844Q945.496,434.88563452148435,945.496,424.8096345214844Q945.496,421.31363452148435,946.318,417.81863452148434L933.567,430.1556345214844Q927.807,435.91363452148437,923.18,438.3816345214844Q918.552,440.84863452148437,915.673,440.84863452148437ZM913.821,436.32463452148437Q925.751,436.32463452148437,946.318,410.20963452148436L968.12,380.1878345214844Q966.475,377.30903452148436,962.773,377.30903452148436Q950.226,377.30903452148436,928.836,397.4606345214844Q906.623,418.0236345214844,908.885,431.38963452148437Q909.914,436.32463452148437,913.821,436.32463452148437Z" fill="#3D3D3D" fill-opacity="1"/></g><g><path d="M579.7684343261719,193.079Q587.1724343261719,191.023,604.2434343261718,191.023Q621.315434326172,191.023,627.4854343261718,193.079Q649.2874343261719,200.071,654.6344343261719,211.586Q657.9254343261719,219.811,655.8684343261718,221.456Q647.6414343261719,227.214,633.6554343261719,221.868Q624.1944343261719,217.755,612.6764343261718,215.699Q603.2154343261718,214.054,588.8184343261719,207.268Q574.4204343261719,200.482,574.0094343261719,197.603Q573.1864343261718,196.781,575.0374343261719,195.341Q576.8884343261718,193.902,579.7684343261719,193.079ZM532.0514343261718,154.421Q545.2144343261718,150.72,550.1504343261719,153.598Q553.0304343261719,154.421,553.6474343261718,159.973Q554.2644343261718,165.525,555.0874343261719,186.088Q555.0874343261719,216.932,554.4704343261719,235.234Q553.8534343261719,253.535,554.0584343261719,261.966Q554.2644343261718,270.396,553.0304343261719,299.185Q552.2074343261719,329.618,547.2714343261719,329.618Q545.6264343261719,329.618,541.1014343261719,325.094Q536.5764343261719,320.57,535.9594343261718,309.877Q535.3424343261719,299.185,536.9874343261719,251.89Q538.6334343261719,199.66,532.8744343261719,171.283Q532.0514343261718,166.759,525.4694343261718,164.291Q515.1854343261718,161.001,527.9374343261719,156.477Q529.5834343261719,155.243,532.0514343261718,154.421ZM430.4474343261719,97.6668Q460.47543432617186,90.6754,467.46843432617186,97.6668Q471.5824343261719,101.779,471.5824343261719,106.098Q471.5824343261719,110.416,466.64643432617186,118.23Q461.70943432617184,127.689,458.4194343261719,134.269Q455.1284343261719,140.849,448.95843432617187,145.784Q442.7874343261719,150.72,438.6744343261719,159.356Q435.7944343261719,165.936,430.2414343261719,169.226Q424.6884343261719,172.516,419.7514343261719,170.871Q416.0494343261719,169.637,401.03543432617187,176.012Q386.0204343261719,182.387,384.1698343261719,182.387Q382.31873432617186,182.387,378.2051343261719,185.677Q375.73703432617185,188.144,374.2973343261719,188.144Q372.85753432617184,188.144,368.74403432617186,185.265Q362.57373432617186,180.33,353.52393432617185,170.871Q339.53793432617186,155.655,329.66543432617186,116.174Q328.02003432617187,108.36,328.02003432617187,105.892Q328.02003432617187,103.424,330.4882343261719,100.957Q333.7790343261719,96.8443,344.06283432617187,98.9006Q352.2899343261719,99.3119,358.04883432617186,103.424Q363.80783432617187,107.537,363.80783432617187,111.238Q363.80783432617187,113.295,364.83623432617185,114.117Q365.8645343261719,114.94,369.15543432617187,114.529Q372.44623432617186,114.117,377.5881343261719,112.678Q382.7300343261719,111.238,391.3684343261719,108.36Q414.81543432617184,100.957,430.4474343261719,97.6668ZM434.56043432617184,117.819Q434.56043432617184,113.295,402.47543432617186,126.455Q388.0774343261719,132.213,379.43923432617186,135.092Q373.6803343261719,137.148,372.44623432617186,138.999Q371.21213432617185,140.849,371.21213432617185,145.784Q371.21213432617185,151.542,372.65193432617184,159.973Q374.09163432617186,168.404,375.32573432617187,169.637Q375.73703432617185,170.049,397.33343432617187,161.412Q418.9294343261719,152.776,420.57443432617185,151.131Q421.8084343261719,149.897,428.18443432617187,134.886Q434.56043432617184,119.875,434.56043432617184,117.819ZM515.5974343261719,3.89936Q518.0654343261718,-2.68081,538.6334343261719,1.84306Q545.6264343261719,3.89936,547.8884343261718,6.36692Q550.1504343261719,8.83451,550.1504343261719,15.8259Q550.1504343261719,21.9948,553.6474343261718,26.93Q557.1434343261719,31.8651,557.1434343261719,38.8565Q556.7324343261719,42.1466,557.3494343261718,43.586Q557.9664343261718,45.0255,559.8174343261719,45.4367Q561.6684343261718,45.848,564.959434326172,44.4086Q568.2504343261719,42.9691,574.4204343261719,40.0903Q599.9244343261719,27.7525,616.3784343261718,29.8088Q624.1944343261719,30.2201,624.6054343261719,35.1552Q625.017434326172,40.0903,621.7264343261719,43.3804Q618.4354343261718,47.493,597.6624343261719,55.9239Q576.8884343261718,64.3547,567.4274343261718,65.1772L557.1434343261719,67.2335L555.9094343261719,86.1515Q555.0874343261719,104.658,554.2644343261718,109.593L553.8534343261719,114.94L573.1864343261718,114.117Q592.9314343261719,113.706,618.8464343261719,112.061Q639.4144343261719,110.416,647.2304343261719,112.061Q655.046434326172,113.706,655.046434326172,119.464Q655.046434326172,122.342,650.7264343261719,122.959Q646.4074343261718,123.576,625.8394343261718,124.81Q587.1724343261719,126.455,559.6124343261719,133.858Q526.7034343261719,142.906,522.5904343261718,145.373Q517.6544343261719,147.841,502.02243432617183,151.748Q486.39143432617186,155.655,481.45443432617185,156.066Q476.51843432617187,156.477,468.7024343261719,150.925Q460.88743432617184,145.373,462.1214343261719,142.494Q462.94443432617186,140.027,468.7024343261719,138.382Q503.25643432617187,130.568,514.7744343261719,125.633Q526.2924343261718,120.697,529.9944343261718,113.706Q532.4624343261719,109.182,531.8454343261719,90.6754Q531.2284343261719,72.1687,529.1714343261718,64.766Q526.2924343261718,56.5408,523.8244343261719,41.3241Q521.3564343261719,26.1075,518.0654343261718,16.4428Q514.7744343261719,6.7782,515.5974343261719,3.89936ZM592.9314343261719,672.198L597.4564343261718,672.198Q602.8044343261719,672.198,614.3224343261719,674.666Q622.1374343261718,676.311,624.8114343261718,678.367Q627.4854343261718,680.424,632.0104343261719,687.415Q638.5914343261718,697.285,640.0314343261718,704.482Q641.4714343261719,711.679,637.7694343261719,712.502Q630.7764343261719,715.381,618.4354343261718,705.305Q606.0954343261719,695.229,597.4564343261718,680.424L592.9314343261719,672.198ZM565.7824343261718,624.492Q570.3074343261719,623.258,584.7044343261718,623.875Q599.1014343261719,624.492,600.3364343261719,625.726Q602.8044343261719,627.371,599.1014343261719,632.306Q595.3994343261719,637.241,591.286434326172,638.475Q578.1224343261719,641.354,575.4494343261719,643.41Q572.7754343261719,645.466,572.7754343261719,651.224Q572.7754343261719,663.562,569.690434326172,695.229Q566.6054343261719,726.896,564.5484343261719,731.831L561.6684343261718,738L552.6194343261718,735.532Q536.5764343261719,730.597,532.4624343261719,724.017Q530.8174343261719,720.316,521.3564343261719,714.558Q515.5974343261719,709.623,513.7464343261719,709.417Q511.8954343261719,709.212,509.0154343261719,710.857Q504.9024343261719,714.558,496.2634343261719,719.493Q489.2704343261719,723.195,487.0084343261719,723.4Q484.7454343261719,723.606,477.3414343261719,721.138Q466.64643432617186,717.848,464.58943432617184,712.502Q462.1214343261719,706.744,462.73843432617184,705.099Q463.3554343261719,703.454,467.46843432617186,703.865Q474.8734343261719,706.333,502.4334343261719,687.415Q511.0724343261719,681.657,521.9734343261719,676.516Q532.8744343261719,671.376,539.6614343261718,669.525Q546.4484343261719,667.674,547.2714343261719,670.142Q547.2714343261719,672.198,542.7464343261719,673.432Q539.8674343261719,674.666,528.7604343261719,687.826Q517.6544343261719,700.987,518.4764343261719,702.22Q519.2994343261719,703.454,528.9664343261719,706.127Q538.6334343261719,708.801,543.5694343261719,706.333Q546.8604343261718,704.688,548.094434326172,701.809Q549.3284343261719,698.93,549.7394343261719,687.826Q552.2074343261719,657.804,545.6264343261719,651.635Q543.9804343261719,649.99,533.6964343261718,652.869Q509.4264343261719,658.627,503.6684343261719,659.449Q497.9094343261719,660.272,493.79543432617186,657.804Q484.7454343261719,652.869,488.03643432617184,649.99Q489.2704343261719,649.168,490.50443432617186,649.168Q495.0294343261719,649.168,503.8734343261719,646.083Q512.7174343261719,642.999,531.2284343261719,638.064Q549.7394343261719,633.128,555.2924343261718,629.427Q560.8464343261719,625.726,565.7824343261718,624.492ZM437.8514343261719,618.734Q446.0784343261719,618.734,453.2774343261719,620.996Q460.47543432617186,623.258,460.47543432617186,626.96Q460.47543432617186,636.83,430.4474343261719,634.362Q413.99243432617186,633.128,408.6454343261719,629.838Q405.3544343261719,626.96,403.9144343261719,625.109Q402.47543432617186,623.258,403.29743432617187,622.23Q404.1204343261719,621.202,406.99943432617187,620.791Q409.87943432617186,620.379,416.0494343261719,619.968L437.8514343261719,618.734ZM519.2994343261719,531.136Q524.2354343261719,529.491,533.4914343261719,529.902Q542.7464343261719,530.313,545.6264343261719,532.37Q549.3284343261719,535.248,548.7114343261719,537.922Q548.094434326172,540.595,542.3354343261719,546.352Q530.8174343261719,558.279,511.0724343261719,585.833Q503.25643432617187,597.349,503.6684343261719,600.022Q504.07943432617185,602.695,514.7744343261719,601.461Q553.8534343261719,595.704,557.9664343261718,592.414Q562.4914343261719,588.301,581.825434326172,589.946Q601.1584343261718,591.591,601.1584343261718,596.526Q601.1584343261718,602.695,590.0524343261718,606.396Q578.9454343261718,610.098,552.6194343261718,612.565Q526.7034343261719,615.444,518.2714343261719,615.033Q509.83843432617186,614.622,506.13643432617187,611.743Q500.7884343261719,607.219,497.2924343261719,609.275Q493.79543432617186,611.332,486.80243432617186,623.258Q477.75243432617185,638.475,474.25643432617187,642.382Q470.7594343261719,646.289,463.3554343261719,659.038Q449.36943432617187,683.302,411.11343432617184,709.212Q393.83643432617185,720.727,390.3404343261719,718.671Q386.84343432617186,716.614,386.84343432617186,714.352Q386.84343432617186,712.091,423.0424343261719,673.843Q459.2414343261719,635.596,460.88743432617184,632.717Q465.8234343261719,626.96,476.3134343261719,611.126Q486.80243432617186,595.292,486.80243432617186,594.47Q486.80243432617186,593.647,481.45443432617185,593.647Q476.10743432617187,593.647,471.99343432617184,589.946Q469.1144343261719,587.89,468.29143432617184,587.89Q467.46843432617186,587.89,465.0004343261719,590.769Q462.1214343261719,594.47,460.88743432617184,599.405Q460.06443432617186,602.695,455.33343432617187,605.574Q450.60343432617185,608.453,446.0784343261719,608.453Q441.9654343261719,608.453,438.46843432617186,604.34Q434.9724343261719,600.228,434.9724343261719,595.704Q434.9724343261719,589.946,444.6384343261719,581.31Q454.30543432617185,572.673,453.48243432617187,566.916Q453.07143432617187,563.625,454.0994343261719,562.803Q455.1284343261719,561.98,460.06443432617186,561.98Q467.46843432617186,561.98,471.99343432617184,554.166Q476.51843432617187,547.586,479.39843432617187,546.147Q482.2774343261719,544.707,485.9794343261719,546.764Q488.8594343261719,548.409,488.4474343261719,550.465Q488.03643432617184,552.521,483.9234343261719,559.924Q478.9864343261719,570.617,478.9864343261719,571.645Q478.9864343261719,572.673,487.6254343261719,576.786L496.2634343261719,581.31L501.19943432617185,575.552Q506.13643432617187,569.794,513.9514343261719,553.755Q519.2994343261719,543.474,520.1224343261719,540.184Q520.9444343261719,536.893,518.8884343261718,535.248Q516.8314343261719,533.603,516.8314343261719,532.987Q516.8314343261719,532.37,519.2994343261719,531.136ZM599.1014343261719,529.491Q617.2014343261719,523.322,625.8394343261718,522.088Q634.4784343261719,520.854,645.1734343261719,522.499Q663.6844343261719,526.201,645.1734343261719,536.482Q636.123434326172,542.24,620.4924343261719,555.4Q608.9744343261718,565.27,607.5344343261719,567.944Q606.0954343261719,570.617,608.5634343261719,573.496Q611.4424343261719,576.375,641.2654343261719,596.938Q671.0884343261719,617.501,679.7274343261719,622.436Q715.5144343261718,641.354,683.8404343261718,641.354Q668.209434326172,641.354,657.3084343261719,635.802Q646.4074343261718,630.25,630.7764343261719,614.211Q612.6764343261718,595.704,598.2794343261719,583.777Q565.7824343261718,557.045,565.7824343261718,554.166Q565.7824343261718,552.521,568.661434326172,552.316Q571.5414343261718,552.11,575.6544343261719,553.755Q579.7684343261719,555.4,583.8814343261719,557.868Q589.6404343261719,561.158,591.0804343261718,561.569Q592.5204343261719,561.98,593.3434343261719,559.513Q595.8114343261718,556.223,602.8044343261719,547.997Q609.7974343261719,539.772,608.5634343261719,539.772Q607.3294343261718,539.772,595.6054343261719,543.885Q583.8814343261719,547.997,572.7754343261719,545.941Q561.6684343261718,543.885,559.6124343261719,542.651Q555.498434326172,540.595,562.9024343261719,538.95Q565.7824343261718,537.716,568.661434326172,537.716Q575.2434343261718,537.716,599.1014343261719,529.491ZM450.60343432617185,500.702Q460.06443432617186,497.412,463.9724343261719,502.759Q467.8804343261719,508.105,464.58943432617184,519.621Q461.70943432617184,528.257,459.85843432617185,530.313Q458.00743432617185,532.37,458.00743432617185,535.248Q458.00743432617185,539.361,454.30543432617185,547.997Q450.60343432617185,556.634,448.95843432617187,556.634Q447.72343432617185,556.634,444.6384343261719,559.513Q441.5534343261719,562.392,436.41143432617184,559.307Q431.2694343261719,556.223,429.8304343261719,557.251Q428.3904343261719,558.279,425.92243432617187,556.223Q422.63143432617187,553.344,423.0424343261719,543.268Q423.45443432617185,533.192,427.5674343261719,526.201Q432.91543432617186,517.975,440.11343432617184,509.956Q447.3124343261719,501.936,450.60343432617185,500.702ZM335.01303432617186,510.161Q355.58073432617186,501.936,358.87153432617185,499.263Q362.1624343261719,496.59,370.1838343261719,492.272Q378.2051343261719,487.953,388.9004343261719,489.187Q406.99943432617187,490.832,411.11343432617184,496.59Q411.9364343261719,499.057,410.29043432617186,505.226Q409.0564343261719,509.339,404.73743432617186,514.274Q400.4184343261719,519.209,386.0204343261719,531.958Q381.0846343261719,536.482,381.90733432617185,539.155Q382.7300343261719,541.829,389.72343432617185,544.707Q395.89343432617187,547.997,397.33343432617187,550.054Q398.7724343261719,552.11,396.7164343261719,555.4Q393.0134343261719,561.158,368.3327343261719,566.504Q342.8288343261719,572.673,327.6087343261719,584.188Q321.84973432617187,588.301,314.8567343261719,586.656Q295.9345343261719,582.955,290.5869143261719,546.764Q288.1187943261719,530.725,286.4733743261719,529.079Q284.82796332617187,527.434,285.65067032617185,521.06Q286.4733743261719,514.685,288.9414943261719,511.807Q293.46638432617186,505.226,306.6297343261719,513.452L314.0340343261719,517.564L335.01303432617186,510.161ZM362.1624343261719,523.733Q362.9851343261719,517.564,360.51693432617185,517.153Q358.04883432617186,516.742,345.9139343261719,522.088Q333.7790343261719,527.434,328.4314343261719,528.257Q325.1406343261719,529.079,324.31783432617186,530.519Q323.49513432617186,531.958,323.9065343261719,535.248Q325.1406343261719,541.006,329.2541343261719,551.699Q333.36763432617187,562.392,334.19033432617186,562.392Q335.01303432617186,562.392,346.53093432617186,555.4Q354.34663432617185,550.465,356.40343432617186,547.792Q358.46023432617187,545.119,359.28293432617187,539.361Q360.10563432617187,530.725,362.1624343261719,523.733ZM483.10043432617186,490.01Q490.50443432617186,487.953,507.98743432617186,486.103Q525.4694343261718,484.252,555.498434326172,477.055Q585.5274343261719,469.858,599.9244343261719,469.858Q614.3224343261719,469.858,629.7474343261719,471.709Q645.1734343261719,473.559,648.0534343261719,476.027Q652.9894343261719,480.139,664.9184343261718,486.308Q669.4434343261719,488.776,669.4434343261719,490.832Q669.4434343261719,494.534,659.3654343261719,499.469Q649.2874343261719,504.404,640.2374343261719,505.226Q629.1304343261719,507.283,623.3714343261719,510.161Q618.8464343261719,512.218,613.7054343261718,512.835Q608.5634343261719,513.452,606.0954343261719,511.807Q604.8604343261718,510.161,614.5274343261719,496.796Q624.1944343261719,483.43,623.1664343261718,482.401Q622.1374343261718,481.373,614.7334343261718,480.139Q597.0454343261719,476.027,557.9664343261718,488.776Q532.8744343261719,496.59,512.5124343261718,498.441Q492.1504343261719,500.291,483.10043432617186,494.945L475.2844343261719,491.655L483.10043432617186,490.01Z" fill="#3D3D3D" fill-opacity="1"/></g></g></svg>